HIERARCHY
ROOT RootJoint
{
    OFFSET   0.000000   0.000000   0.000000
    CHANNELS 6 Xposition Yposition Zposition Xrotation Yrotation Zrotation
    JOINT pelvis_lowerback
    {
        OFFSET   0.000000   0.093605   0.000000
        CHANNELS 3 Xrotation Yrotation Zrotation
        JOINT lowerback_torso
        {
            OFFSET   0.000000   0.100000   0.000000
            CHANNELS 3 Xrotation Yrotation Zrotation
            JOINT torso_head
            {
                OFFSET   0.000000   0.282350   0.000000
                CHANNELS 3 Xrotation Yrotation Zrotation
                End Site
                {
                    OFFSET   0.000000   0.192650   0.000000
                }
            }
            JOINT rTorso_Clavicle
            {
                OFFSET  -0.001000   0.157500   0.000000
                CHANNELS 3 Xrotation Yrotation Zrotation
                JOINT rShoulder
                {
                    OFFSET  -0.117647   0.000000   0.000000
                    CHANNELS 3 Xrotation Yrotation Zrotation
                    JOINT rElbow
                    {
                        OFFSET  -0.245000   0.000000   0.000000
                        CHANNELS 3 Xrotation Yrotation Zrotation
                        JOINT rWrist
                        {
                            OFFSET  -0.240000   0.000000   0.000000
                            CHANNELS 3 Xrotation Yrotation Zrotation
                            End Site
                            {
                                OFFSET  -0.116353  -0.002500   0.000000
                            }
                        }
                    }
                }
            }
            JOINT lTorso_Clavicle
            {
                OFFSET   0.001000   0.157500   0.000000
                CHANNELS 3 Xrotation Yrotation Zrotation
                JOINT lShoulder
                {
                    OFFSET   0.117647   0.000000   0.000000
                    CHANNELS 3 Xrotation Yrotation Zrotation
                    JOINT lElbow
                    {
                        OFFSET   0.245000   0.000000   0.000000
                        CHANNELS 3 Xrotation Yrotation Zrotation
                        JOINT lWrist
                        {
                            OFFSET   0.240000   0.000000   0.000000
                            CHANNELS 3 Xrotation Yrotation Zrotation
                            End Site
                            {
                                OFFSET   0.116353  -0.002500   0.000000
                            }
                        }
                    }
                }
            }
        }
    }
    JOINT rHip
    {
        OFFSET  -0.100000  -0.051395   0.000000
        CHANNELS 3 Xrotation Yrotation Zrotation
        JOINT rKnee
        {
            OFFSET   0.000000  -0.410000   0.000000
            CHANNELS 3 Xrotation Yrotation Zrotation
            JOINT rAnkle
            {
                OFFSET   0.000000  -0.390000   0.000000
                CHANNELS 3 Xrotation Yrotation Zrotation
                JOINT rToeJoint
                {
                    OFFSET   0.000000  -0.050000   0.130000
                    CHANNELS 3 Xrotation Yrotation Zrotation
                    End Site
                    {
                        OFFSET  -0.010000   0.002000   0.060000
                    }
                }
            }
        }
    }
    JOINT lHip
    {
        OFFSET   0.100000  -0.051395   0.000000
        CHANNELS 3 Xrotation Yrotation Zrotation
        JOINT lKnee
        {
            OFFSET   0.000000  -0.410000   0.000000
            CHANNELS 3 Xrotation Yrotation Zrotation
            JOINT lAnkle
            {
                OFFSET   0.000000  -0.390000   0.000000
                CHANNELS 3 Xrotation Yrotation Zrotation
                JOINT lToeJoint
                {
                    OFFSET   0.000000  -0.050000   0.130000
                    CHANNELS 3 Xrotation Yrotation Zrotation
                    End Site
                    {
                        OFFSET   0.010000   0.002000   0.060000
                    }
                }
            }
        }
    }
}
MOTION
Frames: 14
Frame Time:   0.008333
 -2.521376   0.850650   5.234378  -8.500125  -1.339741  -4.325704  12.649265  -3.583209   2.210362   4.588052  -3.120926   4.037862  -1.464268  -0.318609  -0.213659   3.406942   2.247217  14.456247  11.885069   8.691865  41.363767  -0.008836   7.699513   0.000010   9.580065   1.553320   0.794445   1.323857  -6.918126 -13.441151   5.073076 -21.970276 -41.991718  -0.033947 -24.226082  -0.005089  10.068144  -3.991745   1.123528 -19.850174  -4.850083   3.916943  44.144625   0.000302   0.002115 -15.447569  -6.628328  -2.968952  -0.333915  -0.000216   0.000066   7.306550  -2.354803  12.133684  72.255412  -0.001750  -0.006369   4.780866  -2.389093  -2.110059  -8.856950  -0.001897   0.026743
 -2.523652   0.853356   5.244634  -8.568238  -1.906113  -4.379036  12.678374  -3.214958   2.123058   4.503482  -3.031145   3.965137  -1.344614  -0.297159  -0.095579   3.272506   2.496157  14.407015  11.335603   9.154401  41.081471  -0.011591   8.618131   0.000942   9.630430   1.372256   0.637443   1.444333  -6.850374 -13.559816   5.853168 -21.653241 -42.211530  -0.036463 -22.925383  -0.008021  10.057784  -4.014173   0.981175 -18.732430  -4.642447   4.211066  43.533868   0.001526   0.003307 -15.894877  -6.271623  -3.106470  -0.381146  -0.000165   0.000053   5.572716  -2.118143  11.883857  73.731693  -0.000472  -0.006983   3.689829  -1.771965  -2.042855  -8.032136  -0.001851   0.024307
 -2.525774   0.856309   5.254692  -8.633711  -2.474489  -4.403318  12.731095  -2.850214   2.021326   4.430598  -2.921969   3.873733  -1.227272  -0.282640   0.015449   3.088918   2.769257  14.349719  10.778803   9.636926  40.812467  -0.013788   9.512684   0.001380   9.671116   1.383822   0.413736   1.596240  -6.773197 -13.662997   6.613908 -21.336465 -42.426438  -0.038009 -21.688556  -0.010140  10.040524  -3.932312   0.736622 -17.571088  -4.408360   4.451228  42.785645   0.002672   0.004720 -16.254560  -5.906683  -3.239587  -0.415750  -0.000131   0.000042   3.754221  -1.883353  11.587893  74.970832   0.000526  -0.007603   2.654607  -1.196696  -1.969240  -7.346674  -0.001576   0.021378
 -2.527794   0.859288   5.264686  -8.712752  -3.032001  -4.411972  12.793540  -2.474856   1.911809   4.372804  -2.783298   3.771849  -1.112416  -0.270426   0.118111   2.891301   3.048553  14.281350  10.242027  10.110239  40.555731  -0.015365  10.360556   0.001268   9.708424   1.484092   0.160780   1.760859  -6.683850 -13.752575   7.340072 -21.029697 -42.634775  -0.038228 -20.527094  -0.010959  10.021333  -3.808269   0.446557 -16.376616  -4.152974   4.652669  41.977976   0.003552   0.005998 -16.577694  -5.550728  -3.369481  -0.439739  -0.000108   0.000034   1.911859  -1.666251  11.279180  76.058033   0.001122  -0.008103   1.683481  -0.661710  -1.891055  -6.732152  -0.001289   0.018492
 -2.529741   0.862162   5.274686  -8.807609  -3.576636  -4.411963  12.856130  -2.089682   1.797686   4.325633  -2.619700   3.663542  -1.001745  -0.258757   0.213073   2.693541   3.323286  14.202372   9.733763  10.563859  40.309554  -0.016385  11.157665   0.000860   9.744857   1.617585  -0.107098   1.932418  -6.582519 -13.828218   8.030713 -20.732875 -42.832720  -0.037339 -19.437963  -0.010761  10.002806  -3.662925   0.144022 -15.164297  -3.882141   4.821930  41.157757   0.004135   0.007013 -16.892512  -5.206082  -3.492691  -0.455854  -0.000090   0.000027   0.083164  -1.467296  10.975725  77.031542   0.001366  -0.008427   0.773900  -0.163930  -1.810001  -6.177611  -0.001050   0.015809
 -2.531632   0.864857   5.284724  -8.915462  -4.109293  -4.408263  12.912802  -1.699826   1.681640   4.284161  -2.437778   3.552279  -0.896728  -0.247211   0.300934   2.501253   3.588507  14.115000   9.256090  10.994169  40.073428  -0.016923  11.904429   0.000370   9.781060   1.760715  -0.383802   2.107779  -6.470927 -13.890330   8.686690 -20.445647 -43.018457  -0.035656 -18.416767  -0.009921   9.986058  -3.501378  -0.156165 -13.947681  -3.600267   4.963807  40.351828   0.004455   0.007744 -17.214239  -4.872164  -3.606665  -0.466225  -0.000074   0.000022  -1.708029  -1.285246  10.687808  77.912738   0.001333  -0.008571  -0.077462   0.299390  -1.727451  -5.675953  -0.000879   0.013389
 -2.533473   0.867334   5.294810  -9.031621  -4.631575  -4.404345  12.959914  -1.310861   1.565974   4.244398  -2.243834   3.441012  -0.798243  -0.235758   0.382262   2.316653   3.842149  14.022282   8.808554  11.400508  39.847718  -0.017054  12.602952  -0.000072   9.817092   1.904108  -0.665301   2.284203  -6.351795 -13.940231   9.308698 -20.168447 -43.191704  -0.033459 -17.459454  -0.008756   9.971599  -3.326478  -0.447498 -12.737795  -3.310508   5.081962  39.574720   0.004565   0.008215 -17.550494  -4.547800  -3.709874  -0.472398  -0.000061   0.000017  -3.446403  -1.118918  10.420802  78.715688   0.001100  -0.008562  -0.874025   0.730743  -1.644488  -5.221417  -0.000775   0.011247
 -2.535182   0.870092   5.304891  -9.153869  -5.295350  -4.340088  13.018703  -0.936089   1.397551   4.228645  -2.083675   3.260350  -0.726492  -0.240224   0.479768   2.143739   4.064534  13.951703   8.162609  11.953396  39.591033  -0.019319  13.593212   0.001193   9.859504   1.731450  -0.786373   2.451207  -6.158365 -13.976417  10.113905 -19.773841 -43.296943  -0.031526 -16.592791  -0.008834   9.958290  -3.338477  -0.706729 -11.487026  -2.987088   5.079868  38.672257   0.004939   0.010071 -17.769789  -4.078794  -3.646809  -0.508691  -0.000016   0.000014  -5.042395  -0.781735  10.094492  78.692671   0.000854  -0.006797  -1.968319   1.351552  -1.520879  -4.960521  -0.000683   0.009604
 -2.536825   0.872806   5.314863  -9.249165  -5.961226  -4.273150  13.074591  -0.572333   1.232882   4.203438  -1.904092   3.076663  -0.656740  -0.251607   0.568448   1.928183   4.309649  13.865602   7.519291  12.516771  39.344504  -0.021116  14.551275   0.002019   9.895640   1.723629  -0.959998   2.643909  -5.949758 -13.984304  10.895398 -19.378607 -43.395303  -0.029490 -15.769961  -0.008709   9.943899  -3.319038  -1.002700 -10.255666  -2.663061   5.048989  37.723382   0.005181   0.011807 -17.952468  -3.605392  -3.583274  -0.539315   0.000011   0.000011  -6.653435  -0.470763   9.788932  78.430801   0.000728  -0.004777  -3.005623   1.930763  -1.393783  -4.755563  -0.000581   0.008063
 -2.538408   0.875346   5.324787  -9.340172  -6.614754  -4.207822  13.132996  -0.201130   1.073831   4.177327  -1.700898   2.897485  -0.589377  -0.263732   0.650291   1.697915   4.564314  13.766155   6.900542  13.066112  39.104917  -0.022253  15.458110   0.002233   9.930466   1.795345  -1.174621   2.840727  -5.738173 -13.973948  11.638558 -18.995864 -43.485728  -0.027264 -14.994785  -0.008172   9.930184  -3.262590  -1.306687  -9.039184  -2.335590   4.996019  36.779775   0.005198   0.013087 -18.133595  -3.147643  -3.523120  -0.563841   0.000024   0.000009  -8.255711  -0.193574   9.510989  78.093551   0.000727  -0.002952  -3.979634   2.469428  -1.265974  -4.574767  -0.000488   0.006722
 -2.539936   0.877659   5.334709  -9.433660  -7.251407  -4.145020  13.190198   0.176205   0.920901   4.152710  -1.479938   2.724647  -0.524533  -0.274909   0.726235   1.465165   4.818930  13.658244   6.312823  13.593158  38.873570  -0.022750  16.311060   0.002066   9.965285   1.901093  -1.415349   3.036416  -5.526504 -13.951213  12.341933 -18.627893 -43.568457  -0.024938 -14.266135  -0.007338   9.918161  -3.179766  -1.602000  -7.838145  -2.007109   4.921903  35.866502   0.005017   0.013879 -18.330489  -2.709078  -3.463834  -0.583342   0.000029   0.000007  -9.827140   0.054594   9.261892  77.736633   0.000801  -0.001439  -4.892364   2.970413  -1.139048  -4.414242  -0.000402   0.005574
 -2.541413   0.879725   5.344654  -9.528897  -7.869107  -4.085722  13.241930   0.554029   0.775022   4.128422  -1.248321   2.559630  -0.462929  -0.284852   0.796836   1.236309   5.067985  13.546702   5.758009  14.094751  38.652683  -0.022689  17.111037   0.001730  10.000198   2.021501  -1.670862   3.229056  -5.316547 -13.920249  13.006379 -18.275427 -43.644802  -0.022608 -13.581846  -0.006359   9.908201  -3.077660  -1.883843  -6.655801  -1.680468   4.828363  34.994228   0.004690   0.014241 -18.550738  -2.290392  -3.403318  -0.598783   0.000029   0.000006 -11.353558   0.278088   9.041213  77.381210   0.000908  -0.000236  -5.746983   3.436378  -1.014135  -4.271442  -0.000323   0.004599
 -2.542841   0.881539   5.354630  -9.622436  -8.467118  -4.030747  13.285148   0.926842   0.637091   4.102594  -1.012262   2.403680  -0.405241  -0.293633   0.862569   1.014932   5.308430  13.435599   5.236079  14.569966  38.444231  -0.022172  17.860214   0.001365  10.035040   2.148146  -1.932570   3.417044  -5.110201 -13.884210  13.632884 -17.939170 -43.716119  -0.020348 -12.939787  -0.005359   9.900364  -2.961852  -2.151784  -5.496093  -1.357967   4.717581  34.166284   0.004271   0.014257 -18.796712  -1.891319  -3.340216  -0.610914   0.000027   0.000004 -12.826201   0.480265   8.847317  77.036099   0.001022   0.000694  -6.546873   3.869800  -0.892051  -4.144226  -0.000253   0.003777
 -2.544157   0.883349   5.364772  -9.738569  -9.245122  -3.906298  13.293792   1.300678   0.444352   4.147510  -0.745275   2.184543  -0.357433  -0.347450   0.926168   0.814732   5.521391  13.319480   4.586422  15.161666  38.235822  -0.023467  18.836615   0.002174  10.044818   2.039055  -2.035579   3.577425  -4.838382 -13.821437  14.286883 -17.440332 -43.856636  -0.018468 -12.342421  -0.004291   9.891324  -2.995026  -2.307152  -4.344857  -0.959807   4.473306  33.361695   0.003970   0.015026 -19.026828  -1.376310  -3.175386  -0.638932   0.000047   0.000004 -13.931525   0.839384   8.616703  75.489046   0.003221   0.005158  -7.285859   4.503329  -0.676699  -4.062947  -0.000257   0.003181
